<?xml version="1.0" standalone="no"?>
<!DOCTYPE svg PUBLIC "-//W3C//DTD SVG 20010904//EN"
 "http://www.w3.org/TR/2001/REC-SVG-20010904/DTD/svg10.dtd">
<svg version="1.0" xmlns="http://www.w3.org/2000/svg"
 width="512.000000pt" height="512.000000pt" viewBox="0 0 512.000000 512.000000"
 preserveAspectRatio="xMidYMid meet">

<g transform="translate(0.000000,512.000000) scale(0.100000,-0.100000)"
fill="#ffffff" stroke="none">
<path d="M2477 5106 c-187 -70 -231 -304 -82 -434 18 -17 43 -33 54 -37 21 -6
21 -11 21 -361 l0 -354 -27 0 c-58 0 -212 -33 -313 -66 -131 -44 -271 -117
-385 -201 l-88 -65 -248 248 c-225 225 -247 250 -236 268 6 12 11 50 11 86 0
143 -105 248 -249 250 -75 0 -122 -17 -173 -63 -59 -55 -82 -105 -82 -185 0
-105 42 -178 131 -227 44 -24 66 -29 119 -29 36 0 74 5 86 11 18 11 43 -11
268 -236 l248 -248 -65 -88 c-84 -114 -157 -254 -201 -385 -33 -101 -66 -255
-66 -312 l0 -28 -354 0 -354 0 -12 30 c-15 37 -81 97 -129 118 -45 19 -145 19
-191 0 -50 -21 -96 -63 -128 -117 -23 -39 -27 -57 -27 -121 0 -64 4 -82 27
-121 32 -54 78 -96 128 -117 46 -19 146 -19 191 0 48 21 114 81 129 118 l12
30 354 0 354 0 0 -27 c0 -58 33 -212 66 -313 44 -131 117 -271 201 -385 l65
-88 -247 -247 c-243 -243 -248 -248 -277 -238 -16 6 -59 8 -97 6 -133 -7 -222
-96 -229 -228 -5 -86 10 -132 62 -188 54 -59 105 -82 184 -82 105 0 178 42
227 131 24 44 29 66 29 119 0 36 -5 74 -11 86 -11 18 11 43 236 268 l248 248
88 -65 c180 -133 398 -224 611 -255 l114 -16 0 -352 0 -352 -30 -12 c-37 -15
-97 -81 -118 -129 -19 -45 -19 -145 0 -191 21 -50 63 -96 117 -128 39 -23 57
-27 121 -27 64 0 82 4 121 27 54 32 96 78 117 128 19 46 19 146 0 191 -21 48
-81 114 -118 129 l-30 12 0 352 0 352 114 16 c213 31 431 122 611 255 l88 65
248 -248 c225 -225 247 -250 236 -268 -6 -12 -11 -50 -11 -86 0 -146 107 -250
256 -250 77 0 129 22 181 76 52 54 70 107 65 192 -7 134 -95 223 -229 230 -38
2 -81 0 -97 -6 -29 -10 -34 -5 -277 238 l-247 247 65 88 c133 180 224 398 255
611 l16 114 352 0 352 0 12 -30 c15 -37 81 -97 129 -118 45 -19 145 -19 191 0
50 21 96 63 128 117 23 39 27 57 27 121 0 64 -4 82 -27 121 -32 54 -78 96
-128 117 -46 19 -146 19 -191 0 -48 -21 -114 -81 -129 -118 l-12 -30 -352 0
-352 0 -16 114 c-31 213 -122 431 -255 611 l-65 88 248 248 c225 225 250 247
268 236 12 -6 50 -11 86 -11 146 0 250 107 250 256 0 74 -22 127 -71 176 -46
47 -84 64 -154 69 -114 10 -198 -34 -250 -128 -24 -44 -29 -66 -29 -119 0 -36
5 -74 11 -86 11 -18 -11 -43 -236 -268 l-248 -248 -88 65 c-114 84 -254 157
-385 201 -101 33 -255 66 -312 66 l-28 0 0 354 0 354 30 12 c37 15 97 81 118
129 19 45 19 145 0 191 -21 50 -63 96 -114 126 -55 32 -150 41 -207 20z m138
-181 c38 -37 37 -88 -1 -122 -80 -73 -186 46 -109 122 15 16 36 25 55 25 19 0
40 -9 55 -25z m-1628 -677 c30 -34 34 -55 19 -93 -34 -80 -156 -53 -156 34 0
73 89 111 137 59z m3260 0 c31 -29 31 -87 1 -115 -45 -42 -112 -31 -134 22
-15 38 -11 59 19 93 27 29 82 30 114 0z m-1460 -517 c415 -81 753 -372 898
-771 105 -292 83 -655 -58 -935 -108 -215 -317 -424 -532 -532 -326 -164 -743
-165 -1066 -3 -222 112 -426 316 -536 535 -165 328 -165 742 0 1070 134 267
382 487 667 590 182 66 432 84 627 46z m-2467 -1119 c60 -76 -32 -172 -114
-118 -51 33 -45 109 11 137 41 20 78 14 103 -19z m4615 -5 c59 -84 -64 -177
-132 -101 -28 31 -29 73 -3 107 33 42 104 39 135 -6z m-3971 -1601 c35 -15 60
-62 49 -94 -32 -92 -163 -78 -163 18 0 42 29 76 78 89 1 1 18 -5 36 -13z
m3284 -19 c15 -14 22 -32 22 -56 0 -97 -130 -112 -163 -19 -11 31 13 79 47 94
36 15 62 10 94 -19z m-1633 -669 c47 -41 28 -129 -30 -144 -59 -15 -109 27
-107 89 1 40 41 77 82 77 16 0 41 -10 55 -22z"/>
<path d="M2410 3659 c-360 -47 -701 -298 -855 -632 -320 -692 136 -1489 897
-1569 686 -73 1283 524 1210 1209 -66 629 -627 1073 -1252 992z m358 -184
c317 -76 574 -307 678 -613 89 -261 60 -545 -82 -785 -66 -110 -211 -255 -321
-321 -176 -104 -390 -151 -585 -128 -219 26 -401 115 -558 272 -153 153 -243
335 -271 545 -56 433 211 858 628 1001 54 18 127 38 163 43 84 13 267 5 348
-14z"/>
<path d="M2504 3217 c-23 -20 -27 -33 -32 -95 l-5 -71 -91 -3 -91 -3 0 -505 0
-505 91 -3 91 -3 6 -52 c15 -130 158 -131 173 -1 l6 51 83 11 c99 13 170 46
214 99 58 70 77 192 45 287 -16 47 -74 118 -104 128 -10 3 -2 15 27 42 49 43
73 105 73 184 0 157 -92 248 -271 267 l-66 7 -6 71 c-4 61 -8 74 -31 94 -15
13 -40 23 -56 23 -16 0 -41 -10 -56 -23z m243 -344 c46 -21 77 -86 67 -139
-16 -87 -84 -117 -255 -112 l-94 3 -3 133 -3 132 127 0 c97 0 134 -4 161 -17z
m3 -417 c50 -18 80 -67 80 -131 0 -38 -6 -60 -21 -79 -38 -49 -66 -56 -214
-56 l-135 0 0 140 0 140 128 -1 c75 0 141 -6 162 -13z"/>
</g>
</svg>
